<svg width="86" height="30" fill="none" xmlns="http://www.w3.org/2000/svg"><path d="M9.7 5v8C9 11 7.4 9.8 5.3 9.8 1.9 9.8 0 12.5 0 16.4c0 4 2 6.6 5.6 6.6 2 0 3.4-1 4-3v2.7h3.9V5H9.7zm-3 14.5c-2 0-2.9-1-2.9-3 0-2.2 1-3.2 3-3.2s3 1 3 3.1-1 3.1-3 3.1zM27.9 16.3c0-3.9-2.5-6.5-6.2-6.5-3.8 0-6.3 2.7-6.3 6.7S18 23 21.9 23c3 0 4.8-1.2 5.7-3.4l-3.3-1.1c-.6 1.2-1.1 1.6-2.3 1.6-1.6 0-2.4-.8-2.7-2.5h8.5v-1.3zm-6-3.7c1.4 0 2.2.7 2.2 2.5h-4.8c.2-1.8 1-2.5 2.5-2.5zM38.7 10v3c-.8-2-2.3-3.2-4.4-3.2-3.4 0-5.3 2.7-5.3 6.6 0 4 2 6.6 5.5 6.6 2 0 3.5-1 4.2-3v2.7h3.8V10.1h-3.8zm-3 9.5c-2 0-3-1-3-3 0-2.2 1-3.2 3-3.2 2.1 0 3 1 3 3.1s-.9 3.1-3 3.1zM45.2 22.7H49V5h-3.8v17.7z" fill="#000"/><path d="M86 15a15 15 0 11-30 0 15 15 0 0130 0z" fill="#F9DD59"/><path d="M75.8 23H80L73.8 5h-5.6L62 23h4.2l1.3-4h7l1.3 4zm-7-7.5l1.2-3.9 1-3.2 1 3.2 1.3 4h-4.6z" fill="#fff"/></svg>